<svg width="122" height="21" viewBox="0 0 122 21" fill="none" xmlns="http://www.w3.org/2000/svg">
<path d="M7.95481 5.34832C9.25804 5.34832 10.3032 5.74187 11.0903 6.52897C11.8903 7.31607 12.2903 8.50316 12.2903 10.0903V16.129H7.91611V10.8451C7.91611 9.6322 7.48385 9.02574 6.61933 9.02574C6.12901 9.02574 5.72901 9.19994 5.41933 9.54833C5.12256 9.88381 4.97417 10.4193 4.97417 11.1548V16.129H0.599976V5.54187H4.76127V6.58703C5.17417 6.17413 5.65159 5.86445 6.19352 5.658C6.73546 5.45155 7.32256 5.34832 7.95481 5.34832Z" fill="#E8EAEE"/>
<path d="M18.9319 5.34832C20.7899 5.34832 22.2093 5.76768 23.1899 6.60639C24.1706 7.4322 24.6609 8.70962 24.6609 10.4386V16.129H20.5964V14.7354C20.0932 15.7935 19.0932 16.3225 17.5964 16.3225C16.7577 16.3225 16.0416 16.1806 15.448 15.8967C14.8674 15.5999 14.4222 15.2064 14.1125 14.7161C13.8158 14.2128 13.6674 13.6516 13.6674 13.0322C13.6674 11.987 14.0674 11.1935 14.8674 10.6516C15.6674 10.1096 16.8803 9.83865 18.5061 9.83865H20.2674C20.1254 9.01284 19.4609 8.59994 18.2738 8.59994C17.7964 8.59994 17.3125 8.67736 16.8222 8.8322C16.3319 8.97413 15.9125 9.17413 15.5641 9.4322L14.1706 6.54832C14.777 6.17413 15.5061 5.88381 16.3577 5.67736C17.2222 5.458 18.0803 5.34832 18.9319 5.34832ZM18.9125 13.6903C19.2222 13.6903 19.4996 13.6064 19.7448 13.4386C19.9899 13.2709 20.1706 13.0193 20.2867 12.6838V11.9483H19.2028C18.3125 11.9483 17.8674 12.2451 17.8674 12.8386C17.8674 13.0838 17.9577 13.2903 18.1383 13.458C18.3319 13.6128 18.5899 13.6903 18.9125 13.6903Z" fill="#E8EAEE"/>
<path d="M33.9062 5.34832C35.2094 5.34832 36.2546 5.74187 37.0417 6.52897C37.8417 7.31607 38.2417 8.50316 38.2417 10.0903V16.129H33.8675V10.8451C33.8675 9.6322 33.4352 9.02574 32.5707 9.02574C32.0804 9.02574 31.6804 9.19994 31.3707 9.54833C31.0739 9.88381 30.9255 10.4193 30.9255 11.1548V16.129H26.5513V5.54187H30.7126V6.58703C31.1255 6.17413 31.6029 5.86445 32.1449 5.658C32.6868 5.45155 33.2739 5.34832 33.9062 5.34832Z" fill="#E8EAEE"/>
<path d="M52.04 1.76768V16.129H47.8787V15.258C47.2464 15.9677 46.2787 16.3225 44.9755 16.3225C44.0464 16.3225 43.1884 16.1032 42.4013 15.6645C41.6271 15.2128 41.0077 14.5677 40.5432 13.729C40.0916 12.8903 39.8658 11.9225 39.8658 10.8257C39.8658 9.72897 40.0916 8.76768 40.5432 7.94187C41.0077 7.10316 41.6271 6.46445 42.4013 6.02575C43.1884 5.57413 44.0464 5.34832 44.9755 5.34832C46.1497 5.34832 47.0464 5.65155 47.6658 6.258V1.76768H52.04ZM46.0206 12.9161C46.5239 12.9161 46.9368 12.7354 47.2593 12.3741C47.5819 11.9999 47.7432 11.4838 47.7432 10.8257C47.7432 10.1677 47.5819 9.658 47.2593 9.29671C46.9368 8.93542 46.5239 8.75478 46.0206 8.75478C45.5174 8.75478 45.1045 8.93542 44.7819 9.29671C44.4593 9.658 44.2981 10.1677 44.2981 10.8257C44.2981 11.4838 44.4593 11.9999 44.7819 12.3741C45.1045 12.7354 45.5174 12.9161 46.0206 12.9161Z" fill="#E8EAEE"/>
<path d="M58.7189 5.34832C60.577 5.34832 61.9963 5.76768 62.977 6.60639C63.9576 7.4322 64.448 8.70962 64.448 10.4386V16.129H60.3834V14.7354C59.8802 15.7935 58.8802 16.3225 57.3834 16.3225C56.5447 16.3225 55.8286 16.1806 55.2351 15.8967C54.6544 15.5999 54.2093 15.2064 53.8996 14.7161C53.6028 14.2128 53.4544 13.6516 53.4544 13.0322C53.4544 11.987 53.8544 11.1935 54.6544 10.6516C55.4544 10.1096 56.6673 9.83865 58.2931 9.83865H60.0544C59.9125 9.01284 59.248 8.59994 58.0609 8.59994C57.5834 8.59994 57.0996 8.67736 56.6092 8.8322C56.1189 8.97413 55.6996 9.17413 55.3512 9.4322L53.9576 6.54832C54.5641 6.17413 55.2931 5.88381 56.1447 5.67736C57.0092 5.458 57.8673 5.34832 58.7189 5.34832ZM58.6996 13.6903C59.0092 13.6903 59.2867 13.6064 59.5318 13.4386C59.777 13.2709 59.9576 13.0193 60.0738 12.6838V11.9483H58.9899C58.0996 11.9483 57.6544 12.2451 57.6544 12.8386C57.6544 13.0838 57.7447 13.2903 57.9254 13.458C58.1189 13.6128 58.377 13.6903 58.6996 13.6903Z" fill="#E8EAEE"/>
<path d="M78.2371 1.76768V16.129H74.0758V15.258C73.4435 15.9677 72.4758 16.3225 71.1726 16.3225C70.2435 16.3225 69.3855 16.1032 68.5984 15.6645C67.8242 15.2128 67.2048 14.5677 66.7403 13.729C66.2887 12.8903 66.0629 11.9225 66.0629 10.8257C66.0629 9.72897 66.2887 8.76768 66.7403 7.94187C67.2048 7.10316 67.8242 6.46445 68.5984 6.02575C69.3855 5.57413 70.2435 5.34832 71.1726 5.34832C72.3467 5.34832 73.2435 5.65155 73.8629 6.258V1.76768H78.2371ZM72.2177 12.9161C72.7209 12.9161 73.1338 12.7354 73.4564 12.3741C73.779 11.9999 73.9403 11.4838 73.9403 10.8257C73.9403 10.1677 73.779 9.658 73.4564 9.29671C73.1338 8.93542 72.7209 8.75478 72.2177 8.75478C71.7145 8.75478 71.3016 8.93542 70.979 9.29671C70.6564 9.658 70.4951 10.1677 70.4951 10.8257C70.4951 11.4838 70.6564 11.9999 70.979 12.3741C71.3016 12.7354 71.7145 12.9161 72.2177 12.9161Z" fill="#E8EAEE"/>
<path d="M80.1741 5.54187H84.5483V16.129H80.1741V5.54187ZM82.3612 4.69026C81.5741 4.69026 80.9354 4.48381 80.445 4.07091C79.9676 3.6451 79.7289 3.10962 79.7289 2.46445C79.7289 1.81929 79.9676 1.29026 80.445 0.877357C80.9354 0.451551 81.5741 0.238647 82.3612 0.238647C83.1612 0.238647 83.7999 0.438648 84.2773 0.838648C84.7547 1.23865 84.9934 1.75478 84.9934 2.38703C84.9934 3.058 84.7547 3.61284 84.2773 4.05155C83.7999 4.47736 83.1612 4.69026 82.3612 4.69026Z" fill="#E8EAEE"/>
<path d="M91.229 5.34832C93.0871 5.34832 94.5064 5.76768 95.4871 6.60639C96.4677 7.4322 96.958 8.70962 96.958 10.4386V16.129H92.8935V14.7354C92.3903 15.7935 91.3903 16.3225 89.8935 16.3225C89.0548 16.3225 88.3387 16.1806 87.7451 15.8967C87.1645 15.5999 86.7193 15.2064 86.4097 14.7161C86.1129 14.2128 85.9645 13.6516 85.9645 13.0322C85.9645 11.987 86.3645 11.1935 87.1645 10.6516C87.9645 10.1096 89.1774 9.83865 90.8032 9.83865H92.5645C92.4226 9.01284 91.758 8.59994 90.5709 8.59994C90.0935 8.59994 89.6096 8.67736 89.1193 8.8322C88.629 8.97413 88.2096 9.17413 87.8613 9.4322L86.4677 6.54832C87.0742 6.17413 87.8032 5.88381 88.6548 5.67736C89.5193 5.458 90.3774 5.34832 91.229 5.34832ZM91.2096 13.6903C91.5193 13.6903 91.7967 13.6064 92.0419 13.4386C92.2871 13.2709 92.4677 13.0193 92.5838 12.6838V11.9483H91.5C90.6096 11.9483 90.1645 12.2451 90.1645 12.8386C90.1645 13.0838 90.2548 13.2903 90.4355 13.458C90.629 13.6128 90.8871 13.6903 91.2096 13.6903Z" fill="#E8EAEE"/>
<path d="M102.99 16.3225C102.087 16.3225 101.197 16.2257 100.319 16.0322C99.442 15.8386 98.7323 15.587 98.1904 15.2774L99.3904 12.3935C99.8807 12.6903 100.461 12.9225 101.132 13.0903C101.803 13.258 102.455 13.3419 103.087 13.3419C103.59 13.3419 103.939 13.3032 104.132 13.2257C104.339 13.1354 104.442 13.0064 104.442 12.8386C104.442 12.6709 104.313 12.5548 104.055 12.4903C103.81 12.4257 103.403 12.3612 102.836 12.2967C101.971 12.1935 101.236 12.0645 100.629 11.9096C100.023 11.7419 99.4872 11.4257 99.0227 10.9612C98.571 10.4967 98.3452 9.8322 98.3452 8.96768C98.3452 8.28381 98.5517 7.67091 98.9646 7.12897C99.3775 6.58704 99.9904 6.15478 100.803 5.8322C101.629 5.50962 102.616 5.34832 103.765 5.34832C104.565 5.34832 105.345 5.42574 106.107 5.58058C106.881 5.72252 107.539 5.93542 108.081 6.21929L106.881 9.10316C105.952 8.58703 104.932 8.32897 103.823 8.32897C102.868 8.32897 102.39 8.49671 102.39 8.8322C102.39 8.99994 102.519 9.12252 102.777 9.19994C103.036 9.26446 103.442 9.32897 103.997 9.39349C104.861 9.49671 105.59 9.6322 106.184 9.79994C106.79 9.96768 107.319 10.2838 107.771 10.7483C108.236 11.2128 108.468 11.8774 108.468 12.7419C108.468 13.3999 108.261 13.9999 107.848 14.5419C107.436 15.0838 106.816 15.5161 105.99 15.8386C105.165 16.1612 104.165 16.3225 102.99 16.3225Z" fill="#E8EAEE"/>
<path d="M110.923 18H121.423V20.52H110.923V18Z" fill="#6356FE"/>
</svg>
